<?xml version="1.0" encoding="utf-8"?>
<svg fill="none" height="200" viewBox="0 0 200 200" width="200" xmlns="http://www.w3.org/2000/svg">
<rect fill="#B0B0B0" height="200" rx="30" width="200"/>
<g transform="translate(30, 30)">
<!-- Enlarged speech bubble -->
<path d="M30 60C30 40 50 25 70 25C90 25 110 40 110 60C110 80 90 95 70 95C64 95 58 93 54 90L36 97L40 78C33 74 30 67 30 60Z" fill="#000000"/>
<!-- Brain-shaped neural network (shifted very slightly more left) -->
<!-- Left hemisphere -->
<circle cx="61" cy="58" fill="#000000" r="2.5"/>
<circle cx="51" cy="47" fill="#000000" r="2.5"/>
<circle cx="49" cy="69" fill="#000000" r="2.5"/>
<circle cx="41" cy="58" fill="#000000" r="2.5"/>
<!-- Right hemisphere -->
<circle cx="81" cy="58" fill="#000000" r="2.5"/>
<circle cx="91" cy="47" fill="#000000" r="2.5"/>
<circle cx="93" cy="69" fill="#000000" r="2.5"/>
<circle cx="101" cy="58" fill="#000000" r="2.5"/>
<!-- Neural connections -->
<line stroke="#00FFC6" stroke-width="1.2" x1="61" x2="51" y1="58" y2="47"/>
<line stroke="#00FFC6" stroke-width="1.2" x1="61" x2="49" y1="58" y2="69"/>
<line stroke="#00FFC6" stroke-width="1.2" x1="61" x2="41" y1="58" y2="58"/>
<line stroke="#00FFC6" stroke-width="1.2" x1="81" x2="91" y1="58" y2="47"/>
<line stroke="#00FFC6" stroke-width="1.2" x1="81" x2="93" y1="58" y2="69"/>
<line stroke="#00FFC6" stroke-width="1.2" x1="81" x2="101" y1="58" y2="58"/>
<!-- Corpus callosum -->
<line stroke="#00FFC6" stroke-width="1.2" x1="61" x2="81" y1="58" y2="58"/>
</g>
<defs>
<linearGradient gradientUnits="userSpaceOnUse" id="gradient" x1="30" x2="110" y1="25" y2="95">
<stop stop-color="#00FFC6"/>
<stop offset="1" stop-color="#006EFF"/>
</linearGradient>
</defs>
</svg>